<?xml version="1.0" encoding="UTF-8"?>
<svg xmlns="http://www.w3.org/2000/svg" xmlns:xlink="http://www.w3.org/1999/xlink" width="32px" height="32px" viewBox="0 0 32 32" version="1.1">
<g id="surface1">
<path style=" stroke:none;fill-rule:nonzero;fill:rgb(100%,100%,100%);fill-opacity:1;" d="M 20.328125 32.0625 C 13.550781 32.0625 6.800781 32.0625 0.046875 32.0625 C 0.046875 21.394531 0.046875 10.730469 0.046875 0.0625 C 10.714844 0.0625 21.382812 0.0625 32.046875 0.0625 C 32.046875 10.730469 32.046875 21.394531 32.046875 32.0625 C 28.148438 32.0625 24.25 32.0625 20.328125 32.0625 M 15.378906 1.445312 C 13.542969 1.445312 11.710938 1.433594 9.878906 1.453125 C 9.171875 1.464844 8.460938 1.511719 7.757812 1.621094 C 6.09375 1.886719 4.6875 2.804688 3.566406 4.460938 C 2.371094 6.230469 1.558594 8.28125 0.875 10.433594 C 0.867188 10.457031 0.882812 10.488281 0.886719 10.523438 C 1.210938 10.523438 1.53125 10.539062 1.847656 10.511719 C 1.949219 10.503906 2.066406 10.417969 2.136719 10.320312 C 2.578125 9.6875 2.980469 9 3.453125 8.40625 C 4.234375 7.417969 5.121094 6.589844 6.214844 6.308594 C 6.957031 6.117188 7.726562 6.070312 8.488281 6.003906 C 8.960938 5.960938 9.441406 5.996094 9.949219 5.996094 C 9.851562 7.417969 9.765625 8.804688 9.660156 10.1875 C 9.476562 12.652344 9.164062 15.089844 8.707031 17.5 C 8.160156 20.378906 7.132812 22.894531 5.53125 25.023438 C 5.074219 25.625 4.648438 26.285156 4.308594 27 C 3.726562 28.230469 3.851562 29.996094 5.195312 30.824219 C 6.382812 31.554688 7.867188 31.144531 8.792969 29.832031 C 9.46875 28.878906 9.921875 27.761719 10.242188 26.554688 C 10.925781 24.007812 11.199219 21.347656 11.480469 18.695312 C 11.65625 17.019531 11.796875 15.335938 11.929688 13.652344 C 12.066406 11.917969 12.179688 10.179688 12.296875 8.445312 C 12.351562 7.636719 12.394531 6.824219 12.445312 6.015625 C 15.078125 6.015625 17.6875 6.015625 20.308594 6.015625 C 20.21875 6.875 20.121094 7.710938 20.042969 8.550781 C 19.859375 10.527344 19.671875 12.503906 19.5 14.480469 C 19.304688 16.726562 19.140625 18.976562 19.167969 21.242188 C 19.1875 22.855469 19.296875 24.453125 19.605469 26.023438 C 19.988281 27.984375 20.816406 29.507812 22.222656 30.441406 C 24.375 31.871094 27.207031 31.179688 28.902344 28.816406 C 30.253906 26.941406 30.644531 24.578125 30.941406 22.15625 C 30.566406 22.15625 30.21875 22.15625 29.871094 22.15625 C 29.71875 23.09375 29.4375 23.921875 28.898438 24.570312 C 28.066406 25.570312 27.0625 25.898438 25.964844 25.785156 C 24.613281 25.640625 23.265625 24.585938 22.820312 22.523438 C 22.582031 21.4375 22.519531 20.332031 22.5625 19.214844 C 22.640625 17.175781 22.671875 15.128906 22.832031 13.097656 C 23.011719 10.84375 23.316406 8.609375 23.554688 6.359375 C 23.589844 6.023438 23.699219 5.988281 23.921875 5.988281 C 26.179688 6 28.433594 5.996094 30.691406 5.996094 C 30.773438 5.996094 30.855469 5.996094 30.933594 5.996094 C 30.933594 4.453125 30.933594 2.960938 30.933594 1.445312 C 25.753906 1.445312 20.589844 1.445312 15.378906 1.445312 Z M 15.378906 1.445312 "/>
<path style=" stroke:none;fill-rule:nonzero;fill:rgb(0.392157%,0.392157%,0.392157%);fill-opacity:1;" d="M 15.402344 1.445312 C 20.589844 1.445312 25.753906 1.445312 30.933594 1.445312 C 30.933594 2.960938 30.933594 4.453125 30.933594 5.996094 C 30.855469 5.996094 30.773438 5.996094 30.691406 5.996094 C 28.433594 5.996094 26.179688 6 23.921875 5.988281 C 23.699219 5.988281 23.589844 6.023438 23.554688 6.359375 C 23.316406 8.609375 23.011719 10.84375 22.832031 13.097656 C 22.671875 15.128906 22.640625 17.175781 22.5625 19.214844 C 22.519531 20.332031 22.582031 21.4375 22.820312 22.523438 C 23.265625 24.585938 24.613281 25.640625 25.964844 25.785156 C 27.0625 25.898438 28.066406 25.570312 28.898438 24.570312 C 29.4375 23.921875 29.71875 23.09375 29.871094 22.15625 C 30.21875 22.15625 30.566406 22.15625 30.941406 22.15625 C 30.644531 24.578125 30.253906 26.941406 28.902344 28.816406 C 27.207031 31.179688 24.375 31.871094 22.222656 30.441406 C 20.816406 29.507812 19.988281 27.984375 19.605469 26.023438 C 19.296875 24.453125 19.1875 22.855469 19.167969 21.242188 C 19.140625 18.976562 19.304688 16.726562 19.5 14.480469 C 19.671875 12.503906 19.859375 10.527344 20.042969 8.550781 C 20.121094 7.710938 20.21875 6.875 20.308594 6.015625 C 17.6875 6.015625 15.078125 6.015625 12.445312 6.015625 C 12.394531 6.824219 12.351562 7.636719 12.296875 8.445312 C 12.179688 10.179688 12.066406 11.917969 11.929688 13.652344 C 11.796875 15.335938 11.65625 17.019531 11.480469 18.695312 C 11.199219 21.347656 10.925781 24.007812 10.242188 26.554688 C 9.921875 27.761719 9.46875 28.878906 8.792969 29.832031 C 7.867188 31.144531 6.382812 31.554688 5.195312 30.824219 C 3.851562 29.996094 3.726562 28.230469 4.308594 27 C 4.648438 26.285156 5.074219 25.625 5.53125 25.023438 C 7.132812 22.894531 8.160156 20.378906 8.707031 17.5 C 9.164062 15.089844 9.476562 12.652344 9.660156 10.1875 C 9.765625 8.804688 9.851562 7.417969 9.949219 5.996094 C 9.441406 5.996094 8.960938 5.960938 8.488281 6.003906 C 7.726562 6.070312 6.957031 6.117188 6.214844 6.308594 C 5.121094 6.589844 4.234375 7.417969 3.453125 8.40625 C 2.980469 9 2.578125 9.6875 2.136719 10.320312 C 2.066406 10.417969 1.949219 10.503906 1.847656 10.511719 C 1.53125 10.539062 1.210938 10.523438 0.886719 10.523438 C 0.882812 10.488281 0.867188 10.457031 0.875 10.433594 C 1.558594 8.28125 2.371094 6.230469 3.566406 4.460938 C 4.6875 2.804688 6.09375 1.886719 7.757812 1.621094 C 8.460938 1.511719 9.171875 1.464844 9.878906 1.453125 C 11.710938 1.433594 13.542969 1.445312 15.402344 1.445312 Z M 15.402344 1.445312 "/>
</g>
</svg>
